<?xml version="1.0" encoding="UTF-8"?>
<svg version="1.1" xmlns="http://www.w3.org/2000/svg" width="1063" height="839">
<path d="M0 0 C350.79 0 701.58 0 1063 0 C1063 276.87 1063 553.74 1063 839 C712.21 839 361.42 839 0 839 C0 562.13 0 285.26 0 0 Z " fill="#FCFDFC" transform="translate(0,0)"/>
<path d="M0 0 C0 0.66 0 1.32 0 2 C1.093125 2.103125 2.18625 2.20625 3.3125 2.3125 C8.68965184 2.9689566 13.81178648 4.483592 19 6 C19 6.66 19 7.32 19 8 C19.64066406 8.18175781 20.28132812 8.36351562 20.94140625 8.55078125 C29.89352908 11.15236687 39.20414025 14.1750156 45.9296875 20.94140625 C48.12160069 23.12091239 50.38988336 24.75306288 52.9375 26.5 C67.62989618 37.06200368 77.89945439 49.40279696 87 65 C87.67289063 66.13179688 88.34578125 67.26359375 89.0390625 68.4296875 C97.34075642 82.85083593 101.88480476 98.73912271 105 115 C105.36260284 116.44067707 105.73576952 117.87878773 106.125 119.3125 C107.82241906 126.4659089 108.15234015 133.60831585 108.1328125 140.9375 C108.13424759 142.14672119 108.13424759 142.14672119 108.13571167 143.38037109 C108.13638619 145.06429117 108.13458331 146.74821396 108.13037109 148.43212891 C108.12495562 151.02121684 108.13036937 153.61013572 108.13671875 156.19921875 C108.13605894 157.84114622 108.1347798 159.48307358 108.1328125 161.125 C108.13483673 161.90093506 108.13686096 162.67687012 108.13894653 163.47631836 C108.1149892 168.8850108 108.1149892 168.8850108 107 170 C103.90285742 170.09804809 100.82799884 170.12990642 97.73045349 170.12025452 C96.74546295 170.12110894 95.7604724 170.12196337 94.74563366 170.12284368 C91.41821365 170.12450147 88.09084316 170.11897225 84.76342773 170.11352539 C82.3889262 170.11324356 80.01442458 170.11340118 77.6399231 170.1139679 C71.8440998 170.11422605 66.04829294 170.10987473 60.25247341 170.10353024 C53.51097875 170.0963963 46.76948647 170.09488635 40.02798856 170.09374207 C28.00473954 170.09155123 15.98149729 170.08489027 3.95825195 170.07543945 C-7.72403937 170.06626616 -19.40632885 170.05918492 -31.08862305 170.05493164 C-31.80822626 170.05466892 -32.52782947 170.05440619 -33.26923884 170.05413551 C-36.87912936 170.05283051 -40.4890199 170.05156679 -44.09891045 170.05032361 C-74.06594504 170.03995 -104.03297173 170.02225669 -134 170 C-133.22687085 173.51065216 -132.44431976 177.01914124 -131.66015625 180.52734375 C-131.44315063 181.51327515 -131.22614502 182.49920654 -131.00256348 183.51501465 C-128.26221174 196.36268169 -128.26221174 196.36268169 -121.84765625 207.58984375 C-120 210 -120 210 -120 214 C-119.34 214 -118.68 214 -118 214 C-116.72815878 215.59726539 -115.5329956 217.25586895 -114.375 218.9375 C-109.30691033 226.06593828 -104.57971678 232.5106711 -97 237 C-96.31731862 238.32520503 -95.6492959 239.65812182 -95 241 C-93.67984188 241.69239062 -92.3426763 242.35235614 -91 243 C-88.95221591 244.28194614 -86.91121961 245.57476338 -84.875 246.875 C-76.92321905 251.84500295 -69.10827625 254.92267384 -60 257 C-59.01 257.33 -58.02 257.66 -57 258 C-54.8571247 258.20115648 -52.71046116 258.36346671 -50.5625 258.5 C-44.40948852 258.89200073 -44.40948852 258.89200073 -42.08569336 259.50488281 C-24.71044686 263.62954627 -3.29001277 259.01656015 13.3125 253.625 C14.17818604 253.34519287 15.04387207 253.06538574 15.93579102 252.77709961 C21.3794288 250.89032056 25.41923292 248.48023059 30 245 C31.11375 244.54625 32.2275 244.0925 33.375 243.625 C37.53027402 241.76229096 40.598426 239.32179044 44.08203125 236.42578125 C46 235 46 235 48 235 C48 234.34 48 233.68 48 233 C49.61974559 231.28769752 51.2958946 229.62836738 53 228 C53.845625 227.113125 54.69125 226.22625 55.5625 225.3125 C57.73641293 223.25006978 59.33769821 222.23265136 62 221 C62.7734375 221.9178125 63.546875 222.835625 64.34375 223.78125 C71.07458675 231.77914489 71.07458675 231.77914489 78.3125 239.3125 C82.23242391 243.14183743 86.32909451 247.1833162 89 252 C88.92943975 257.77418041 82.53785284 262.52039449 78.69140625 266.38769531 C60.2150212 284 60.2150212 284 53 284 C53 284.66 53 285.32 53 286 C50.8205518 286.9735857 48.6398764 287.9442043 46.45703125 288.91015625 C44.95145377 289.57797201 43.44823756 290.25118328 41.94921875 290.93359375 C39.10699374 292.20559595 37.15331064 293 34 293 C33.67 293.99 33.34 294.98 33 296 C30.80688477 296.87548828 30.80688477 296.87548828 27.94140625 297.5703125 C26.40323242 297.95509766 26.40323242 297.95509766 24.83398438 298.34765625 C23.21459961 298.73244141 23.21459961 298.73244141 21.5625 299.125 C19.43839875 299.64679839 17.3146804 300.17015869 15.19140625 300.6953125 C13.77130249 301.0358667 13.77130249 301.0358667 12.32250977 301.38330078 C9.99802076 301.91653494 9.99802076 301.91653494 8 303 C-4.49474219 305.32725006 -17.07899645 305.34098968 -29.74536133 305.31567383 C-33.06038992 305.31250202 -36.37453331 305.33610192 -39.68945312 305.36132812 C-54.62995747 305.40697178 -68.07273666 304.11257093 -82.25 299.0625 C-83.01248047 298.79727539 -83.77496094 298.53205078 -84.56054688 298.25878906 C-86.05276742 297.73835021 -87.54373757 297.21430697 -89.03320312 296.68603516 C-90.66266106 296.11766664 -92.30640721 295.59045171 -93.953125 295.07421875 C-103.24726452 292.06645274 -111.58088533 286.86814825 -120 282 C-120 281.34 -120 280.68 -120 280 C-120.71414063 279.74605469 -121.42828125 279.49210937 -122.1640625 279.23046875 C-144.79169343 269.412695 -165.3979408 240.98050312 -174.3125 218.625 C-174.59738281 217.83222656 -174.88226563 217.03945313 -175.17578125 216.22265625 C-175.97623593 214.06408415 -176.95391536 212.11058143 -178 210.0625 C-181.09822735 203.24396027 -182.12527436 195.64342638 -183.52832031 188.33203125 C-183.98182086 186.0898795 -184.51314325 183.87848332 -185.0546875 181.65625 C-187.37439334 171.23736643 -187.27369247 160.3751506 -187.3125 149.75 C-187.31511841 149.05667572 -187.31773682 148.36335144 -187.32043457 147.64901733 C-187.32752831 129.96053217 -185.01846236 112.71297913 -179 96 C-178.64292969 94.90300781 -178.28585937 93.80601562 -177.91796875 92.67578125 C-166.2519193 57.83370045 -140.20925779 28.88141673 -107.49609375 12.21484375 C-97.72016046 7.43022884 -87.81910391 3.63974532 -77 2 C-77 1.34 -77 0.68 -77 0 C-51.34586813 -3.72862527 -25.55257054 -5.1044374 0 0 Z " fill="#748F78" transform="translate(543,293)"/>
<path d="M0 0 C0.88488098 -0.00570007 1.76976196 -0.01140015 2.68145752 -0.01727295 C4.54023064 -0.02664643 6.3990198 -0.0332261 8.2578125 -0.03710938 C11.05759526 -0.04680391 13.856639 -0.07789659 16.65625 -0.109375 C31.48419785 -0.19660258 44.35168579 2.03115059 58.328125 7.203125 C58.95460938 7.43435059 59.58109375 7.66557617 60.2265625 7.90380859 C72.9391111 12.64319016 72.9391111 12.64319016 78.328125 17.203125 C81.0075895 18.44329169 81.0075895 18.44329169 83.328125 19.203125 C83.328125 19.863125 83.328125 20.523125 83.328125 21.203125 C84.39740234 21.27660156 84.39740234 21.27660156 85.48828125 21.3515625 C89.32160025 22.50103092 91.24569421 24.88201644 93.765625 27.828125 C94.2493457 28.37791016 94.73306641 28.92769531 95.23144531 29.49414062 C96.18422376 30.57955198 97.13247526 31.66895741 98.07568359 32.76269531 C99.07029562 33.90659608 100.09470288 35.02457722 101.12890625 36.1328125 C105.81506563 41.21053775 108.95675521 47.21139273 112.328125 53.203125 C112.83988281 54.02167969 113.35164063 54.84023438 113.87890625 55.68359375 C120.19100586 66.65745966 123.32204476 79.45669711 124.80078125 91.90625 C125.20615378 95.15494027 125.20615378 95.15494027 126.34605217 97.88479042 C127.51682761 101.84073391 127.59959081 105.50969277 127.56863403 109.59335327 C127.57119731 110.83835946 127.57119731 110.83835946 127.57381237 112.10851729 C127.57709889 114.88151554 127.56611738 117.65427024 127.55517578 120.42724609 C127.55461149 122.41825352 127.55492858 124.40926137 127.55606079 126.40026855 C127.55663459 131.80060397 127.5448758 137.20085053 127.53091288 142.60116529 C127.51841011 148.24660765 127.51723537 153.89205204 127.51486206 159.5375061 C127.50864597 170.22586486 127.49223337 180.9141827 127.47216308 191.60252345 C127.44980814 203.77171192 127.43881166 215.94090234 127.42877221 228.11010623 C127.40786727 253.1411404 127.37118938 278.17211847 127.328125 303.203125 C110.168125 303.203125 93.008125 303.203125 75.328125 303.203125 C75.30306885 297.45269775 75.2780127 291.70227051 75.25219727 285.77758789 C75.16891883 266.83042522 75.08025879 247.88329061 74.98878574 228.93616581 C74.93342949 217.4425618 74.87994361 205.9489547 74.83081055 194.45532227 C74.78799807 184.44135361 74.74172761 174.42740803 74.69124645 164.41347498 C74.66462178 159.10768411 74.63976821 153.80189789 74.61905098 148.4960804 C74.59952064 143.50819484 74.57538789 138.52035332 74.54763412 133.53250694 C74.53824453 131.69623231 74.53057617 129.859948 74.52470589 128.02365875 C74.51647698 125.52789511 74.5022097 123.03223927 74.48634338 120.53651428 C74.48536528 119.80014695 74.48438717 119.06377961 74.48337942 118.30509812 C74.7461992 114.96941235 74.7461992 114.96941235 73.328125 112.203125 C72.99636861 110.34782491 72.67046767 108.4912429 72.37768555 106.62939453 C69.24082385 86.6913916 61.45156568 71.09976411 45.24609375 58.83203125 C39.43610256 54.71887986 33.02628524 52.49439078 26.328125 50.203125 C25.47863281 49.83574219 24.62914062 49.46835937 23.75390625 49.08984375 C15.00224278 45.89076548 3.7932227 47.08196937 -5.421875 47.015625 C-6.4747168 47.00257324 -7.52755859 46.98952148 -8.61230469 46.97607422 C-15.22469124 46.96879872 -21.24731236 47.67109229 -27.671875 49.203125 C-28.89777344 49.4609375 -30.12367188 49.71875 -31.38671875 49.984375 C-32.45019531 50.2215625 -33.51367188 50.45875 -34.609375 50.703125 C-35.69089844 50.9403125 -36.77242187 51.1775 -37.88671875 51.421875 C-40.84932951 52.09799735 -40.84932951 52.09799735 -43.671875 54.203125 C-44.661875 54.203125 -45.651875 54.203125 -46.671875 54.203125 C-46.671875 54.863125 -46.671875 55.523125 -46.671875 56.203125 C-47.26613281 56.45964844 -47.86039063 56.71617187 -48.47265625 56.98046875 C-67.74141955 65.88065957 -79.00596571 82.39815747 -87.01953125 101.3984375 C-92.05773498 115.45943194 -93.11986594 129.59221932 -93.10424805 144.359375 C-93.11329019 146.1154142 -93.12362331 147.87144715 -93.13513184 149.62747192 C-93.16244033 154.34126737 -93.17195033 159.05494224 -93.17798591 163.76880646 C-93.18743849 168.71489638 -93.21364682 173.6608986 -93.23799133 178.60693359 C-93.28147215 187.94911531 -93.31013178 197.29127983 -93.33331472 206.63353157 C-93.36046576 217.27945847 -93.40437071 227.92529633 -93.44960344 238.57115936 C-93.54218564 260.44844569 -93.6117759 282.32572366 -93.671875 304.203125 C-111.161875 304.203125 -128.651875 304.203125 -146.671875 304.203125 C-146.671875 205.203125 -146.671875 106.203125 -146.671875 4.203125 C-129.841875 4.203125 -113.011875 4.203125 -95.671875 4.203125 C-95.341875 18.723125 -95.011875 33.243125 -94.671875 48.203125 C-91.206875 42.758125 -91.206875 42.758125 -87.671875 37.203125 C-84.9765625 34.08203125 -84.9765625 34.08203125 -82.546875 31.765625 C-81.73992187 30.98316406 -80.93296875 30.20070313 -80.1015625 29.39453125 C-73.44464592 23.39046341 -73.44464592 23.39046341 -70.609375 22.703125 C-68.48951133 22.33706732 -68.48951133 22.33706732 -66.8984375 20.35546875 C-62.88772365 16.47844536 -57.67440742 14.55833187 -52.671875 12.203125 C-51.75664063 11.75582031 -50.84140625 11.30851562 -49.8984375 10.84765625 C-33.97234929 3.25824471 -17.52563045 0.09048198 0 0 Z " fill="#748F77" transform="translate(867.671875,290.796875)"/>
<path d="M0 0 C81.18 0 162.36 0 246 0 C246 35 246 35 240.625 43.375 C237.28515625 46.3125 237.28515625 46.3125 235.59423828 47.64453125 C232.96691223 49.87836191 231.0716196 52.59282152 229.0625 55.375 C228.25611459 56.44536205 227.44614643 57.51303333 226.6328125 58.578125 C226.21418945 59.12662109 225.79556641 59.67511719 225.36425781 60.24023438 C220.69985915 66.25687459 215.82300247 72.1104474 211 78 C210.17113281 79.01449219 209.34226562 80.02898437 208.48828125 81.07421875 C205.63064835 84.57020594 202.76841909 88.06241403 199.90625 91.5546875 C197.60208955 94.3681008 195.30045462 97.18355556 193 100 C192.50983398 100.59973633 192.01966797 101.19947266 191.51464844 101.81738281 C185.7366223 108.89128172 179.98797161 115.98165807 174.375 123.1875 C170.41357143 128.27064136 166.3159514 133.21172448 162.12451172 138.10620117 C158.81159567 141.99284602 155.63337505 145.96763743 152.5 150 C148.42707228 155.24066989 144.22373036 160.34350019 139.91186523 165.38891602 C137.2340061 168.52657568 134.6186383 171.70007691 132.0625 174.9375 C128.85439108 178.99191987 125.51086204 182.90725226 122.125 186.8125 C118.19527366 191.34846002 114.42720386 195.95930869 110.8125 200.75 C107.15453936 205.59774212 103.26181676 210.13488212 99.15234375 214.60546875 C95.57643891 218.583744 92.30156428 222.79380711 89 227 C84.06580616 233.24929922 79.02310539 239.3890643 73.85620117 245.4465332 C68.56800236 251.20975226 68.56800236 251.20975226 65 258 C127.04 258 189.08 258 253 258 C253 271.86 253 285.72 253 300 C168.19 300 83.38 300 -4 300 C-4 265 -4 265 2.3125 255.1875 C6.1875 251.4453125 6.1875 251.4453125 8.14453125 249.72363281 C11.10278524 246.97557056 13.41291145 243.79493543 15.8125 240.5625 C19.64510477 235.59995562 23.69881369 230.9175264 27.9453125 226.30078125 C30.5739129 223.35734849 32.95201288 220.25753084 35.34375 217.12109375 C36.87641107 215.15827545 38.46696566 213.29466101 40.125 211.4375 C45.45107268 205.4396704 50.4176157 199.13742517 55.45898438 192.90087891 C57.50136647 190.3815527 59.56302276 187.87829971 61.625 185.375 C65.02170888 181.23526106 68.3313281 177.03406896 71.625 172.8125 C75.08062898 168.38554948 78.60945261 164.07682771 82.3515625 159.88671875 C84.85988929 157.01581392 87.20155119 154.01754831 89.5703125 151.03125 C92.65783926 147.17928735 95.79584819 143.37036054 98.9375 139.5625 C99.5461792 138.82451172 100.1548584 138.08652344 100.78198242 137.32617188 C101.97583557 135.87884365 103.16976247 134.43157626 104.36376953 132.984375 C106.53833179 130.34712611 108.70824363 127.70616808 110.875 125.0625 C111.56464844 124.22203125 112.25429687 123.3815625 112.96484375 122.515625 C114.41164703 120.72725396 115.83943599 118.92342698 117.25390625 117.109375 C117.97449219 116.18640625 118.69507813 115.2634375 119.4375 114.3125 C120.07558594 113.48363281 120.71367187 112.65476562 121.37109375 111.80078125 C121.90863281 111.20652344 122.44617188 110.61226563 123 110 C123.66 110 124.32 110 125 110 C125.38478516 108.90558594 125.38478516 108.90558594 125.77734375 107.7890625 C127.06063671 104.86167855 128.52878059 102.83189739 130.5625 100.375 C131.64337891 99.05822266 131.64337891 99.05822266 132.74609375 97.71484375 C133.48988281 96.81894531 134.23367187 95.92304688 135 95 C136.37552884 93.31293104 137.75051474 91.62541929 139.125 89.9375 C140.29473079 88.51207935 141.46452165 87.08670762 142.63525391 85.66210938 C144.17936875 83.78154876 145.72042009 81.89849433 147.26171875 80.015625 C153.84698029 71.98255951 160.49534681 64.01289484 167.28125 56.1484375 C167.71953125 55.63893555 168.1578125 55.12943359 168.609375 54.60449219 C169.61218162 53.4474618 170.62370224 52.29796372 171.640625 51.15332031 C172.18203125 50.53811523 172.7234375 49.92291016 173.28125 49.2890625 C173.77689453 48.7317041 174.27253906 48.1743457 174.78320312 47.60009766 C176.21308009 45.89831762 176.21308009 45.89831762 177 43 C118.59 43 60.18 43 0 43 C0 28.81 0 14.62 0 0 Z " fill="#728F77" transform="translate(59,294)"/>
<path d="M0 0 C1.27895969 0.46853934 2.56018349 0.93095126 3.84375 1.38671875 C6.30220988 2.26136313 8.76054112 3.13636916 11.21875 4.01171875 C12.59546875 4.50091797 12.59546875 4.50091797 14 5 C14 5.99 14 6.98 14 8 C15.27617188 8.09667969 15.27617188 8.09667969 16.578125 8.1953125 C20.77398852 9.182011 23.48486931 11.19993125 26.75 13.875 C27.66471069 14.61266602 27.66471069 14.61266602 28.59790039 15.36523438 C44.34173661 28.348989 52.73811124 43.37113323 58.0546875 62.81640625 C58.95610475 66.13706418 58.95610475 66.13706418 60.6875 69.625 C62 73 62 73 63 85 C-0.03 85 -63.06 85 -128 85 C-128 76.56838693 -126.34825219 69.93350479 -124 62 C-123.71125 60.96230469 -123.4225 59.92460937 -123.125 58.85546875 C-119.37491519 46.34960556 -112.44228749 35.84342344 -104 26 C-103.51015625 25.37738281 -103.0203125 24.75476563 -102.515625 24.11328125 C-96.70150459 16.84563074 -89.65844893 11.35735775 -81 8 C-80.5978125 7.54238281 -80.195625 7.08476562 -79.78125 6.61328125 C-77.0815252 4.16813576 -73.81590722 3.20445868 -70.4375 2 C-69.72094238 1.73872314 -69.00438477 1.47744629 -68.26611328 1.20825195 C-46.82262486 -6.52946257 -21.60245189 -8.66490963 0 0 Z " fill="#FBFCFA" transform="translate(537,339)"/>
<path d="M0 0 C81.18 0 162.36 0 246 0 C246 11.55 246 23.1 246 35 C245.01 35.66 244.02 36.32 243 37 C242.67 36.01 242.34 35.02 242 34 C242.30808594 33.39800781 242.61617187 32.79601562 242.93359375 32.17578125 C244.31629628 29.3546629 244.16096352 27.31863981 244.0625 24.1875 C243.99813346 16.78534735 244.50759751 9.38603728 245 2 C164.48 2 83.96 2 1 2 C1 15.2 1 28.4 1 42 C59.74 42 118.48 42 179 42 C178.67 42.99 178.34 43.98 178 45 C177.67 44.34 177.34 43.68 177 43 C118.59 43 60.18 43 0 43 C0 28.81 0 14.62 0 0 Z " fill="#93A896" transform="translate(59,294)"/>
<path d="M0 0 C1 2 1 2 0 7 C60.39 7 120.78 7 183 7 C183 7.66 183 8.32 183 9 C120.96 9 58.92 9 -5 9 C-3.96846241 4.87384964 -2.71595986 3.1540179 0 0 Z " fill="#CEDED0" transform="translate(129,543)"/>
<path d="M0 0 C42.9 0 85.8 0 130 0 C129.67 0.99 129.34 1.98 129 3 C113.674309 3.02342205 98.34861884 3.04102472 83.02291393 3.05181217 C75.90597623 3.05695542 68.78904968 3.06396033 61.67211914 3.07543945 C55.46471105 3.08544675 49.25731104 3.09186774 43.04989511 3.09408849 C39.76703373 3.09538538 36.4842007 3.09894105 33.20134544 3.10573006 C29.5250857 3.11302775 25.84887329 3.11398727 22.17260742 3.11352539 C20.56282265 3.1189183 20.56282265 3.1189183 18.92051697 3.12442017 C12.22807516 3.1153688 5.6533808 2.72227047 -1 2 C-0.67 1.34 -0.34 0.68 0 0 Z " fill="#6B8570" transform="translate(469,425)"/>
<path d="M0 0 C0.91051753 3.3266361 1.01126829 5.92469317 0.6875 9.375 C0.60886719 10.29023438 0.53023437 11.20546875 0.44921875 12.1484375 C0 15 0 15 -1.01067162 17.71552467 C-2.1298158 21.43097601 -2.26187361 24.52446609 -2.2784729 28.40316772 C-2.2842653 29.12699949 -2.2900577 29.85083125 -2.29602563 30.59659731 C-2.3129651 33.01024478 -2.31589687 35.42370034 -2.31884766 37.83740234 C-2.32815002 39.57226019 -2.33831915 41.30711357 -2.34928894 43.04196167 C-2.37656825 47.74392629 -2.39173224 52.44586098 -2.40471697 57.14788389 C-2.42035653 62.06465808 -2.44714414 66.98137123 -2.4727478 71.89810181 C-2.51952094 81.20519523 -2.55627216 90.51230014 -2.58942068 99.81945097 C-2.62765239 110.41676601 -2.67705982 121.01401973 -2.72740483 131.61128306 C-2.83070291 153.40747675 -2.91997025 175.20370927 -3 197 C-3.33 197 -3.66 197 -4 197 C-4.09375225 174.11986622 -4.16412981 151.23976445 -4.20724869 128.35947704 C-4.22780834 117.73397051 -4.2558017 107.10858385 -4.30175781 96.4831543 C-4.34182874 87.21395112 -4.36748065 77.94483482 -4.37635398 68.67554742 C-4.38153468 63.7748372 -4.39357099 58.87437536 -4.42292023 53.97374535 C-4.45041074 49.34524025 -4.45837836 44.71708187 -4.45243073 40.08850288 C-4.45351614 38.40489176 -4.46126718 36.72126697 -4.4768219 35.03772736 C-4.58338882 22.89046239 -2.89015725 11.79556314 0 0 Z M-57 197 C-39.51 197 -22.02 197 -4 197 C-4 197.33 -4 197.66 -4 198 C-21.49 198 -38.98 198 -57 198 C-57 197.67 -57 197.34 -57 197 Z " fill="#E9F1E9" transform="translate(778,398)"/>
<path d="M0 0 C0.66 0 1.32 0 2 0 C2.66 0.66 3.32 1.32 4 2 C4.66 1.67 5.32 1.34 6 1 C5.9175 1.886875 5.835 2.77375 5.75 3.6875 C6.0537589 7.71230539 7.37232494 9.04386556 10 12 C10 12.66 10 13.32 10 14 C10.99 13.67 11.98 13.34 13 13 C13 14.32 13 15.64 13 17 C14.65 17.66 16.3 18.32 18 19 C15.35261084 20.4606285 14.10551666 21 11 21 C9.57373047 19.6706543 9.57373047 19.6706543 8.1171875 17.82421875 C7.32634766 16.82938477 7.32634766 16.82938477 6.51953125 15.81445312 C5.97683594 15.11255859 5.43414062 14.41066406 4.875 13.6875 C4.32457031 12.99720703 3.77414062 12.30691406 3.20703125 11.59570312 C-0.85740938 6.42777186 -0.85740938 6.42777186 -2 3 C-1.34 3 -0.68 3 0 3 C0 2.01 0 1.02 0 0 Z M19 16 C19.66 16 20.32 16 21 16 C21 16.99 21 17.98 21 19 C20.01 18.67 19.02 18.34 18 18 C18.33 17.34 18.66 16.68 19 16 Z " fill="#829485" transform="translate(382,528)"/>
<path d="M0 0 C0.33 0 0.66 0 1 0 C1 3.63 1 7.26 1 11 C-15.17 11 -31.34 11 -48 11 C-48 10.34 -48 9.68 -48 9 C-41.89097705 8.23138544 -35.96147282 7.86187649 -29.80859375 7.90234375 C-28.97787857 7.9037587 -28.14716339 7.90517365 -27.29127502 7.90663147 C-24.67331125 7.9121683 -22.05543733 7.92470838 -19.4375 7.9375 C-17.64778771 7.94252319 -15.85807405 7.94708465 -14.06835938 7.95117188 C-9.71220567 7.96211692 -5.356118 7.97933681 -1 8 C-0.67 5.36 -0.34 2.72 0 0 Z " fill="#6E8572" transform="translate(772,582)"/>
<path d="M0 0 C-1.54444076 3.48509931 -3.62475353 6.14322337 -6.0625 9.0625 C-6.8565625 10.01898438 -7.650625 10.97546875 -8.46875 11.9609375 C-9.3040625 12.96382813 -10.139375 13.96671875 -11 15 C-12.69187556 17.05895667 -14.37700619 19.12330346 -16.0625 21.1875 C-17.375 22.79166667 -18.6875 24.39583333 -20 26 C-20.33 25.34 -20.66 24.68 -21 24 C-21.66 24 -22.32 24 -23 24 C-23 21 -23 21 -20.75 18.625 C-19.8425 17.75875 -18.935 16.8925 -18 16 C-17.278125 15.071875 -16.55625 14.14375 -15.8125 13.1875 C-15.214375 12.465625 -14.61625 11.74375 -14 11 C-13.34 11 -12.68 11 -12 11 C-11.7525 10.41734375 -11.505 9.8346875 -11.25 9.234375 C-9.81474554 6.66885764 -8.22336987 5.16275202 -6 3.25 C-5.29875 2.63640625 -4.5975 2.0228125 -3.875 1.390625 C-2 0 -2 0 0 0 Z " fill="#7E907E" transform="translate(170,493)"/>
<path d="M0 0 C3.875 1.75 3.875 1.75 5 4 C4.443125 4.0825 3.88625 4.165 3.3125 4.25 C-1.37192018 5.76927141 -4.21942718 9.10719805 -7 13 C-11.80384995 19.71060886 -11.80384995 19.71060886 -16.875 20.9375 C-17.90625 20.958125 -18.9375 20.97875 -20 21 C-18.41641358 17.83282717 -17.54736301 16.26731682 -14.3125 14.6875 C-13.549375 14.460625 -12.78625 14.23375 -12 14 C-12 13.34 -12 12.68 -12 12 C-10.38025441 10.28769752 -8.7041054 8.62836738 -7 7 C-6.113125 6.113125 -5.22625 5.22625 -4.3125 4.3125 C-2.875 2.875 -1.4375 1.4375 0 0 Z " fill="#748875" transform="translate(603,514)"/>
<path d="M0 0 C0.91051753 3.3266361 1.01126829 5.92469317 0.6875 9.375 C0.60886719 10.29023438 0.53023437 11.20546875 0.44921875 12.1484375 C0 15 0 15 -1.00814819 17.80288696 C-2.01474739 21.04753642 -2.27450999 23.62092895 -2.31884766 27.00537109 C-2.33871735 28.16612152 -2.35858704 29.32687195 -2.37905884 30.52279663 C-2.39061005 31.76050812 -2.40216125 32.9982196 -2.4140625 34.2734375 C-2.43342865 35.55231842 -2.4527948 36.83119934 -2.4727478 38.14883423 C-2.52228279 41.53207162 -2.56360235 44.91520382 -2.60089111 48.29858398 C-2.64105483 51.75774773 -2.69209044 55.21674963 -2.7421875 58.67578125 C-2.83810704 65.45041644 -2.9231921 72.22512263 -3 79 C-3.33 79 -3.66 79 -4 79 C-4.09383002 71.50524708 -4.16432502 64.01055706 -4.20724869 56.51534557 C-4.22787894 53.0327203 -4.25572819 49.55050476 -4.30175781 46.06811523 C-4.50532891 30.26483796 -4.33107951 15.29915997 0 0 Z " fill="#E5F1E6" transform="translate(778,398)"/>
<path d="M0 0 C1.5 1.25 1.5 1.25 3 3 C3 4.32 3 5.64 3 7 C3.66 7 4.32 7 5 7 C6.36003823 8.6544188 7.63901205 10.37596045 8.875 12.125 C9.58398438 13.12402344 10.29296875 14.12304688 11.0234375 15.15234375 C13.05468365 18.07878336 15.06149414 21.01147013 17 24 C15.35 24 13.7 24 12 24 C11.67 23.34 11.34 22.68 11 22 C11.66 22 12.32 22 13 22 C12.67 21.34 12.34 20.68 12 20 C11.01 19.67 10.02 19.34 9 19 C7.60287726 17.04402816 6.26220093 15.04563599 5 13 C4.01 13.495 4.01 13.495 3 14 C3 13.01 3 12.02 3 11 C1.68 10.67 0.36 10.34 -1 10 C-0.67 8.35 -0.34 6.7 0 5 C-0.66 5 -1.32 5 -2 5 C-2 4.01 -2 3.02 -2 2 C-1.34 2 -0.68 2 0 2 C0 1.34 0 0.68 0 0 Z " fill="#819482" transform="translate(420,500)"/>
<path d="M0 0 C0.91547607 -0.00064453 1.83095215 -0.00128906 2.77416992 -0.00195312 C11.34437651 0.06334934 19.71670236 0.94408016 28.1875 2.1875 C28.1875 2.5175 28.1875 2.8475 28.1875 3.1875 C26.99261963 3.17702637 25.79773926 3.16655273 24.56665039 3.15576172 C20.09939616 3.11934118 15.63215485 3.0965198 11.16479492 3.07763672 C9.23768908 3.06762913 7.31059822 3.0540189 5.38354492 3.03662109 C2.60071087 3.01214079 -0.18192101 3.00096422 -2.96484375 2.9921875 C-3.81521713 2.98186493 -4.66559052 2.97154236 -5.54173279 2.96090698 C-10.54826469 2.95998486 -14.97011458 3.50612818 -19.79933167 4.85452271 C-22.09459784 5.23415888 -23.61508612 4.8913301 -25.8125 4.1875 C-24.27233306 3.7035345 -22.73027806 3.22557613 -21.1875 2.75 C-20.32898438 2.48316406 -19.47046875 2.21632813 -18.5859375 1.94140625 C-12.35868335 0.24864561 -6.41248454 -0.00467595 0 0 Z " fill="#CFDCD0" transform="translate(500.8125,333.8125)"/>
<path d="M0 0 C0.33 0.99 0.66 1.98 1 3 C-0.9375 5.6875 -0.9375 5.6875 -3 8 C-2.67 8.66 -2.34 9.32 -2 10 C-4.98936384 15.35594354 -8.47539888 18.2974895 -14 21 C-14.66 21 -15.32 21 -16 21 C-14.70324932 18.1958531 -13.28546588 15.97199514 -11.25 13.65234375 C-10.46109375 12.74452148 -10.46109375 12.74452148 -9.65625 11.81835938 C-8.83640625 10.88733398 -8.83640625 10.88733398 -8 9.9375 C-6.91519268 8.69790296 -5.83180417 7.45706251 -4.75 6.21484375 C-4.27046875 5.66948975 -3.7909375 5.12413574 -3.296875 4.56225586 C-1.80388257 2.81919476 -1.80388257 2.81919476 0 0 Z " fill="#829485" transform="translate(182,404)"/>
<path d="M0 0 C-10.7784849 3.88426783 -20.53800985 5.83233791 -32 6 C-31.34 5.67 -30.68 5.34 -30 5 C-30 4.34 -30 3.68 -30 3 C-27.03 3.495 -27.03 3.495 -24 4 C-24 3.34 -24 2.68 -24 2 C-21.11314507 0.55657253 -18.40033313 0.6883965 -15.1875 0.5 C-10.17849707 0.21025545 -10.17849707 0.21025545 -5.23828125 -0.59375 C-3 -1 -3 -1 0 0 Z " fill="#768A7C" transform="translate(567,591)"/>
<path d="M0 0 C0.66 0.99 1.32 1.98 2 3 C0.9730626 7.00505587 -0.88485509 9.34296464 -4 12 C-5.31747324 12.69748583 -6.64914193 13.36959957 -8 14 C-8.66 14.66 -9.32 15.32 -10 16 C-12.125 16.625 -12.125 16.625 -14 17 C-9.68339698 10.99926777 -4.97966692 5.45993937 0 0 Z " fill="#869887" transform="translate(95,511)"/>
<path d="M0 0 C0 0.99 0 1.98 0 3 C-0.99 3.495 -0.99 3.495 -2 4 C-1.34 2.68 -0.68 1.36 0 0 Z M-4 1 C-2.91796875 2.85546875 -2.91796875 2.85546875 -2 5 C-2.95939668 6.69036558 -3.96642853 8.35394174 -5 10 C-5.71923208 13.69523952 -5.71923208 13.69523952 -6 17 C-6.99 17 -7.98 17 -9 17 C-9.33 18.32 -9.66 19.64 -10 21 C-10.99 20.67 -11.98 20.34 -13 20 C-11.54073252 12.86580342 -7.7773022 7.15074075 -4 1 Z " fill="#87958A" transform="translate(382,357)"/>
<path d="M0 0 C1.125 1.6875 1.125 1.6875 2 4 C0.99071489 8.48571158 -1.3342828 10.39541146 -5 13 C-7 12 -7 12 -8 9 C-6.6015625 6.9921875 -6.6015625 6.9921875 -4.625 4.875 C-3.97789063 4.17117188 -3.33078125 3.46734375 -2.6640625 2.7421875 C-1.7838265 1.82062587 -0.90113574 0.90113574 0 0 Z " fill="#7A907C" transform="translate(104,500)"/>
<path d="M0 0 C1.32 0 2.64 0 4 0 C7.15268314 4.72902471 9.52668153 9.20650322 9 15 C8.34 15 7.68 15 7 15 C6.67 15.66 6.34 16.32 6 17 C1.77676538 5.47835991 1.77676538 5.47835991 0 0 Z " fill="#7E8E7F" transform="translate(932,369)"/>
<path d="M0 0 C0.33 2.97 0.66 5.94 1 9 C0.01 8.01 -0.98 7.02 -2 6 C-2.9075 6.804375 -3.815 7.60875 -4.75 8.4375 C-7.10309908 10.41142671 -8.86938046 11.63877467 -12 12 C-10.56869725 8.83831632 -8.82485862 6.37725517 -6.5625 3.75 C-5.96566406 3.04359375 -5.36882812 2.3371875 -4.75390625 1.609375 C-3 0 -3 0 0 0 Z " fill="#7F9281" transform="translate(226,354)"/>
<path d="M0 0 C4.62 0 9.24 0 14 0 C14.33 0.99 14.66 1.98 15 3 C16.6396875 3.0928125 16.6396875 3.0928125 18.3125 3.1875 C24.02200117 3.86402976 28.90705103 6.46288756 34 9 C31.75476719 9.76993603 30.47764981 10.16925417 28.203125 9.36328125 C27.55859375 9.01652344 26.9140625 8.66976563 26.25 8.3125 C18.09504149 4.39811991 8.83835061 2.69573006 0 1 C0 0.67 0 0.34 0 0 Z " fill="#D2DCD2" transform="translate(900,291)"/>
<path d="M0 0 C2.26412144 3.39618215 2.52917385 5.55134952 3.0625 9.5625 C3.54951095 13.92811955 3.54951095 13.92811955 5 18 C5.06950541 19.54023996 5.08452357 21.08334988 5.0625 22.625 C5.05347656 23.44226563 5.04445313 24.25953125 5.03515625 25.1015625 C5.02355469 25.72804688 5.01195312 26.35453125 5 27 C3.5420162 24.222888 2.41215203 21.48008789 1.4375 18.5 C1.06431641 17.37078125 1.06431641 17.37078125 0.68359375 16.21875 C0.45800781 15.4865625 0.23242188 14.754375 0 14 C-0.20367188 13.35546875 -0.40734375 12.7109375 -0.6171875 12.046875 C-1.0942704 9.49594192 -0.8671824 7.32287359 -0.5625 4.75 C-0.46066406 3.85796875 -0.35882812 2.9659375 -0.25390625 2.046875 C-0.17011719 1.37140625 -0.08632813 0.6959375 0 0 Z " fill="#819286" transform="translate(645,398)"/>
<path d="M0 0 C0.99 0.33 1.98 0.66 3 1 C-0.465 8.425 -0.465 8.425 -4 16 C-4.99 16 -5.98 16 -7 16 C-6.74791309 8.94156662 -4.59661939 5.28540945 0 0 Z " fill="#839384" transform="translate(785,376)"/>
<path d="M0 0 C0.33 0.99 0.66 1.98 1 3 C0.236875 3.721875 -0.52625 4.44375 -1.3125 5.1875 C-4.03207252 7.81409241 -4.03207252 7.81409241 -5.5625 10.6875 C-7.1877277 13.30199674 -8.30878691 13.69780012 -11 15 C-11.70394612 16.31403276 -12.36345658 17.6520257 -13 19 C-14.59643578 21.06776444 -16.29138559 23.02160437 -18 25 C-18 21.50868057 -17.49119474 21.01337485 -15.33203125 18.41796875 C-14.76806641 17.73283203 -14.20410156 17.04769531 -13.62304688 16.34179688 C-13.02556641 15.63087891 -12.42808594 14.91996094 -11.8125 14.1875 C-11.23435547 13.48818359 -10.65621094 12.78886719 -10.06054688 12.06835938 C-8.38087347 10.03946573 -6.69173466 8.01884049 -5 6 C-4.02439875 4.82971113 -3.0490998 3.65917013 -2.07421875 2.48828125 C-1.38972656 1.66714844 -0.70523437 0.84601563 0 0 Z " fill="#D0DDD1" transform="translate(300,334)"/>
<path d="M0 0 C0.66 0.33 1.32 0.66 2 1 C0.43632643 4.52238047 -1.69495889 7.27123994 -4.125 10.25 C-4.84945312 11.14203125 -5.57390625 12.0340625 -6.3203125 12.953125 C-7.15175781 13.96632813 -7.15175781 13.96632813 -8 15 C-8.99 14.01 -9.98 13.02 -11 12 C-7.83741823 8.11454239 -4.59805717 4.49811114 -1 1 C-0.67 0.67 -0.34 0.34 0 0 Z " fill="#829284" transform="translate(206,446)"/>
<path d="M0 0 C0.66 0.33 1.32 0.66 2 1 C-7.41002278 11.55808656 -7.41002278 11.55808656 -12 16 C-12.99 15.67 -13.98 15.34 -15 15 C-13.44221619 13.2456027 -11.87905295 11.49653989 -10.3125 9.75 C-9.44238281 8.77546875 -8.57226562 7.8009375 -7.67578125 6.796875 C-5.25206689 4.26347429 -2.7912151 2.11227089 0 0 Z " fill="#D5E2D5" transform="translate(808,353)"/>
<path d="M0 0 C0.33 0.66 0.66 1.32 1 2 C-1.24716184 5.40948693 -3.5347681 8.74589389 -6 12 C-6.3815625 12.58265625 -6.763125 13.1653125 -7.15625 13.765625 C-7.5790625 14.39984375 -8.001875 15.0340625 -8.4375 15.6875 C-8.82808594 16.28949219 -9.21867187 16.89148438 -9.62109375 17.51171875 C-11.31171667 19.33644207 -12.5810158 19.61481143 -15 20 C-13.287474 15.8512019 -10.41116967 12.7812078 -7.5 9.4375 C-3.55102588 4.87578359 -3.55102588 4.87578359 0 0 Z " fill="#8A9B8D" transform="translate(128,470)"/>
<path d="M0 0 C0.66 0.66 1.32 1.32 2 2 C0.0873614 3.62995302 -1.82980142 5.25399515 -3.75 6.875 C-4.55824219 7.56529297 -4.55824219 7.56529297 -5.3828125 8.26953125 C-8.12143213 10.57397948 -10.6893305 12.60180463 -14 14 C-13.67 12.35 -13.34 10.7 -13 9 C-11.68 9 -10.36 9 -9 9 C-9 8.01 -9 7.02 -9 6 C-8.34 6 -7.68 6 -7 6 C-6.67 4.68 -6.34 3.36 -6 2 C-5.38125 1.855625 -4.7625 1.71125 -4.125 1.5625 C-1.96741678 1.06847775 -1.96741678 1.06847775 0 0 Z " fill="#88998C" transform="translate(615,561)"/>
<path d="M0 0 C0.66 0.99 1.32 1.98 2 3 C1.1025444 6.06630664 0.26961192 7.73038808 -2 10 C-4.31765729 10.71927295 -6.65095874 11.3909893 -9 12 C-6.2520787 7.72545575 -3.30749011 3.85873847 0 0 Z " fill="#839785" transform="translate(165,425)"/>
<path d="M0 0 C0.99 0.33 1.98 0.66 3 1 C3 1.66 3 2.32 3 3 C3.71542969 3.05027344 4.43085937 3.10054688 5.16796875 3.15234375 C8.96168966 4.28784366 10.84276198 6.63174421 13.3125 9.5625 C13.76689453 10.08263672 14.22128906 10.60277344 14.68945312 11.13867188 C15.80339243 12.41677066 16.90314888 13.70720655 18 15 C16.68 15.33 15.36 15.66 14 16 C14 15.34 14 14.68 14 14 C13.401875 13.979375 12.80375 13.95875 12.1875 13.9375 C10 13 10 13 8.5625 9.5625 C7.39918608 5.84153145 7.39918608 5.84153145 4.4375 4.8125 C3.633125 4.544375 2.82875 4.27625 2 4 C0.6875 1.875 0.6875 1.875 0 0 Z " fill="#96A699" transform="translate(948,309)"/>
<path d="M0 0 C4.03799756 1.52445751 5.74936567 4.02348576 8.1875 7.5 C8.88230469 8.4796875 9.57710938 9.459375 10.29296875 10.46875 C12 13 12 13 13 15 C11.35 15 9.7 15 8 15 C7.67 14.34 7.34 13.68 7 13 C7.66 13 8.32 13 9 13 C8.67 12.34 8.34 11.68 8 11 C7.01 10.67 6.02 10.34 5 10 C2.88514786 6.64111719 1.2516984 3.75509521 0 0 Z " fill="#8D9B8E" transform="translate(424,509)"/>
<path d="M0 0 C0.33 0.99 0.66 1.98 1 3 C-0.8125 5.6875 -0.8125 5.6875 -3 8 C-3.66 8 -4.32 8 -5 8 C-5.10183594 8.59296875 -5.20367187 9.1859375 -5.30859375 9.796875 C-6.11355652 12.36184111 -7.11566902 13.42743483 -9.0625 15.25 C-9.61035156 15.77078125 -10.15820312 16.2915625 -10.72265625 16.828125 C-11.14417969 17.21484375 -11.56570312 17.6015625 -12 18 C-12.66 17.67 -13.32 17.34 -14 17 C-4.58997722 5.47835991 -4.58997722 5.47835991 0 0 Z " fill="#DAE5DB" transform="translate(163,502)"/>
<path d="M0 0 C3.875 1.75 3.875 1.75 5 4 C4.443125 4.0825 3.88625 4.165 3.3125 4.25 C0.30642146 5.22494439 -1.54771828 7.02621227 -4 9 C-6.8125 10.25 -6.8125 10.25 -9 11 C-6.83515595 7.01212939 -4.28817903 4.11511698 -1 1 C-0.67 0.67 -0.34 0.34 0 0 Z " fill="#8B9B8B" transform="translate(603,514)"/>
<path d="M0 0 C4.21185336 1.40395112 5.17082289 4.33667881 7.125 8.0625 C7.48464844 8.70638672 7.84429688 9.35027344 8.21484375 10.01367188 C10.72081433 14.72057917 11.60883306 18.68368572 12 24 C8 16 4 8 0 0 Z " fill="#CEDED2" transform="translate(975,336)"/>
<path d="M0 0 C0 0.66 0 1.32 0 2 C-6.27 2 -12.54 2 -19 2 C-19 1.34 -19 0.68 -19 0 C-16.20865148 -0.19425873 -13.41716313 -0.38069517 -10.625 -0.5625 C-9.8309375 -0.61857422 -9.036875 -0.67464844 -8.21875 -0.73242188 C-2.2265625 -1.11328125 -2.2265625 -1.11328125 0 0 Z " fill="#6D8773" transform="translate(979,591)"/>
<path d="M0 0 C1.92197835 7.0220752 0.50293193 14.27337044 -2 21 C-2.36920191 22.99369031 -2.71325582 24.99279077 -3 27 C-3.33 27 -3.66 27 -4 27 C-4.23341328 20.69784145 -3.39477733 15.13513544 -2 9 C-1.80921875 8.12988281 -1.6184375 7.25976562 -1.421875 6.36328125 C-0.95533903 4.2405426 -0.47871537 2.12002519 0 0 Z " fill="#CCD8CC" transform="translate(778,398)"/>
<path d="M0 0 C0.66 0.99 1.32 1.98 2 3 C1.34 3 0.68 3 0 3 C0.33 4.32 0.66 5.64 1 7 C0.34 7 -0.32 7 -1 7 C-1 7.66 -1 8.32 -1 9 C-2.65 9.33 -4.3 9.66 -6 10 C-5.49477778 5.62140745 -2.82172778 3.18348776 0 0 Z " fill="#859888" transform="translate(138,458)"/>
<path d="M0 0 C0.99 0.33 1.98 0.66 3 1 C1.33248852 4.94139078 -1.22710649 7.7892812 -4 11 C-4.33 10.34 -4.66 9.68 -5 9 C-5.66 9 -6.32 9 -7 9 C-7 8.34 -7 7.68 -7 7 C-6.01 7 -5.02 7 -4 7 C-3.67 6.01 -3.34 5.02 -3 4 C-2.34 4 -1.68 4 -1 4 C-0.67 2.68 -0.34 1.36 0 0 Z " fill="#829282" transform="translate(134,532)"/>
<path d="M0 0 C2 3 2 3 3 6 C3.66 5.67 4.32 5.34 5 5 C5.33 7.31 5.66 9.62 6 12 C6.66 12 7.32 12 8 12 C7.67 12.99 7.34 13.98 7 15 C6.01 15 5.02 15 4 15 C3.32532438 13.25307205 2.66055844 11.50231475 2 9.75 C1.62875 8.77546875 1.2575 7.8009375 0.875 6.796875 C0 4 0 4 0 0 Z " fill="#90A191" transform="translate(593,395)"/>
<path d="M0 0 C0.58265625 0.21527344 1.1653125 0.43054688 1.765625 0.65234375 C0.775625 1.31234375 -0.214375 1.97234375 -1.234375 2.65234375 C-1.95819967 4.71159514 -1.95819967 4.71159514 -2.234375 6.65234375 C-3.884375 6.98234375 -5.534375 7.31234375 -7.234375 7.65234375 C-7.894375 6.66234375 -8.554375 5.67234375 -9.234375 4.65234375 C-8.16330383 3.78285058 -7.07691556 2.9322017 -5.984375 2.08984375 C-5.38109375 1.61417969 -4.7778125 1.13851562 -4.15625 0.6484375 C-2.234375 -0.34765625 -2.234375 -0.34765625 0 0 Z " fill="#919F93" transform="translate(575.234375,538.34765625)"/>
<path d="M0 0 C0.66 0.33 1.32 0.66 2 1 C1.34 2.65 0.68 4.3 0 6 C-0.66 5.67 -1.32 5.34 -2 5 C-2.33 5 -2.66 5 -3 5 C-3.99 5 -4.98 5 -6 5 C-6.66 6.32 -7.32 7.64 -8 9 C-9.65 9 -11.3 9 -13 9 C-10.59497637 6.36479259 -7.9814151 4.59697057 -4.9375 2.75 C-4.05964844 2.20859375 -3.18179687 1.6671875 -2.27734375 1.109375 C-1.52582031 0.74328125 -0.77429688 0.3771875 0 0 Z " fill="#8C9C8C" transform="translate(432,307)"/>
<path d="M0 0 C-2.39287704 0.8427743 -4.78871019 1.67437002 -7.1875 2.5 C-7.86103516 2.73847656 -8.53457031 2.97695313 -9.22851562 3.22265625 C-12.93204467 4.48727592 -16.07940536 5.30451221 -20 5 C-16.8335822 2.29027707 -14.03063577 1.23750576 -10 0.25 C-8.453125 -0.14445313 -8.453125 -0.14445313 -6.875 -0.546875 C-4.12569023 -0.98019013 -2.58659465 -0.92023079 0 0 Z " fill="#DAE6D9" transform="translate(560,546)"/>
<path d="M0 0 C2 3.75 2 3.75 2 6 C1.01 6 0.02 6 -1 6 C-1.33 7.32 -1.66 8.64 -2 10 C-2.99 9.67 -3.98 9.34 -5 9 C-3.375 2.25 -3.375 2.25 0 0 Z " fill="#829385" transform="translate(374,368)"/>
<path d="M0 0 C-5.16816686 2.67318976 -8.20158873 2.98463588 -14 2 C-14 2.99 -14 3.98 -14 5 C-14.66 5 -15.32 5 -16 5 C-16 4.34 -16 3.68 -16 3 C-17.65 3 -19.3 3 -21 3 C-14.71628193 -0.55355091 -7.05566044 -0.15338392 0 0 Z " fill="#8C9C8C" transform="translate(865,291)"/>
<path d="M0 0 C0.33 0.66 0.66 1.32 1 2 C-2.465 3.485 -2.465 3.485 -6 5 C-6.66 4.34 -7.32 3.68 -8 3 C-7.67 2.34 -7.34 1.68 -7 1 C-7.66 0.67 -8.32 0.34 -9 0 C-5.49270578 -1.16909807 -3.55692677 -0.85056945 0 0 Z " fill="#849886" transform="translate(566,546)"/>
<path d="M0 0 C2.28814723 2.28814723 2.75451161 3.80751622 3.6875 6.875 C3.95949219 7.73867188 4.23148438 8.60234375 4.51171875 9.4921875 C5.01692938 12.08694932 4.85561171 13.530785 4 16 C4 15.01 4 14.02 4 13 C3.34 13 2.68 13 2 13 C-0.40177631 8.64678043 0 4.90103157 0 0 Z " fill="#8B9A8F" transform="translate(984,354)"/>
<path d="M0 0 C-0.33 1.65 -0.66 3.3 -1 5 C-0.01 5.33 0.98 5.66 2 6 C-0.81814566 7.40907283 -2.17277204 6.50872691 -5.125 5.5625 C-6.03507813 5.27503906 -6.94515625 4.98757813 -7.8828125 4.69140625 C-8.58148437 4.46324219 -9.28015625 4.23507812 -10 4 C-10 3.67 -10 3.34 -10 3 C-8.35 3 -6.7 3 -5 3 C-5 2.34 -5 1.68 -5 1 C-3 0 -3 0 0 0 Z " fill="#91A796" transform="translate(540,334)"/>
<path d="M0 0 C0.99 0 1.98 0 3 0 C3.66 2.31 4.32 4.62 5 7 C0.25 6.25 0.25 6.25 -2 4 C-1.34 2.68 -0.68 1.36 0 0 Z " fill="#899B8E" transform="translate(440,578)"/>
<path d="M0 0 C0.33 1.32 0.66 2.64 1 4 C0.01 4.33 -0.98 4.66 -2 5 C-2.185625 6.4540625 -2.185625 6.4540625 -2.375 7.9375 C-2.58125 8.948125 -2.7875 9.95875 -3 11 C-3.99 11.495 -3.99 11.495 -5 12 C-5.66 10.68 -6.32 9.36 -7 8 C-4.69 5.36 -2.38 2.72 0 0 Z " fill="#849587" transform="translate(112,490)"/>
<path d="M0 0 C0.66 0.33 1.32 0.66 2 1 C-2.78060046 7.10854503 -2.78060046 7.10854503 -7 9 C-7.99 10.485 -7.99 10.485 -9 12 C-9.66 11.67 -10.32 11.34 -11 11 C-7.6381774 6.74828319 -4.25171681 3.3618226 0 0 Z " fill="#D5E1D6" transform="translate(445,353)"/>
<path d="M0 0 C0.33 0.99 0.66 1.98 1 3 C1.66 3.33 2.32 3.66 3 4 C1.35 4.33 -0.3 4.66 -2 5 C-2 5.66 -2 6.32 -2 7 C-3.65 7.66 -5.3 8.32 -7 9 C-4.53846154 2.35384615 -4.53846154 2.35384615 -1.8125 0.5625 C-1.214375 0.376875 -0.61625 0.19125 0 0 Z " fill="#8D9F91" transform="translate(823,340)"/>
<path d="M0 0 C0.33 1.32 0.66 2.64 1 4 C-0.65234375 6.140625 -0.65234375 6.140625 -2.9375 8.25 C-3.68902344 8.95640625 -4.44054687 9.6628125 -5.21484375 10.390625 C-5.80394531 10.92171875 -6.39304688 11.4528125 -7 12 C-7.66 11.67 -8.32 11.34 -9 11 C-6.03 7.37 -3.06 3.74 0 0 Z " fill="#DAE5DB" transform="translate(191,468)"/>
<path d="M0 0 C0.33 0 0.66 0 1 0 C1.04898438 1.20398438 1.09796875 2.40796875 1.1484375 3.6484375 C1.22346343 5.22398198 1.29901133 6.79950166 1.375 8.375 C1.4059375 9.1690625 1.436875 9.963125 1.46875 10.78125 C1.51816421 15.36667375 1.51816421 15.36667375 4 19 C3.34 19.99 2.68 20.98 2 22 C1.34 22 0.68 22 0 22 C0 14.74 0 7.48 0 0 Z " fill="#E1EEE0" transform="translate(773,315)"/>
<path d="M0 0 C0.57975586 0.36206543 1.15951172 0.72413086 1.75683594 1.09716797 C0.86480469 1.43490234 -0.02722656 1.77263672 -0.94628906 2.12060547 C-2.11675781 2.56662109 -3.28722656 3.01263672 -4.49316406 3.47216797 C-5.65332031 3.91302734 -6.81347656 4.35388672 -8.00878906 4.80810547 C-11.12910139 5.97520079 -11.12910139 5.97520079 -13.47753906 7.32373047 C-15.24316406 8.09716797 -15.24316406 8.09716797 -18.24316406 7.09716797 C-15.66890122 5.70227671 -13.0861335 4.33145817 -10.49316406 2.97216797 C-9.76355469 2.57384766 -9.03394531 2.17552734 -8.28222656 1.76513672 C-7.57324219 1.39775391 -6.86425781 1.03037109 -6.13378906 0.65185547 C-5.48442383 0.30622559 -4.83505859 -0.0394043 -4.16601562 -0.39550781 C-2.24316406 -0.90283203 -2.24316406 -0.90283203 0 0 Z " fill="#DAE5D9" transform="translate(830.2431640625,295.90283203125)"/>
<path d="M0 0 C0.33 0 0.66 0 1 0 C1 1.65 1 3.3 1 5 C0.34 5 -0.32 5 -1 5 C-2.81240747 7.01608167 -2.81240747 7.01608167 -4.625 9.5 C-5.25664063 10.3353125 -5.88828125 11.170625 -6.5390625 12.03125 C-7.02117188 12.6809375 -7.50328125 13.330625 -8 14 C-8.66 13.67 -9.32 13.34 -10 13 C-8.35790421 10.83040701 -6.71157832 8.66427468 -5.0625 6.5 C-4.59392578 5.87996094 -4.12535156 5.25992188 -3.64257812 4.62109375 C-2.45209536 3.06233214 -1.22858708 1.52890836 0 0 Z " fill="#9BAB9D" transform="translate(67,544)"/>
<path d="M0 0 C0.75 1.6875 0.75 1.6875 1 4 C-0.80450953 6.87384851 -2.01312923 8.64363 -5.25 9.8125 C-5.8275 9.874375 -6.405 9.93625 -7 10 C-5.33248852 6.05860922 -2.77289351 3.2107188 0 0 Z " fill="#D9E3D9" transform="translate(181,480)"/>
<path d="M0 0 C0.66 0 1.32 0 2 0 C2.50806447 1.72681437 3.00610467 3.45657979 3.5 5.1875 C3.7784375 6.15042969 4.056875 7.11335938 4.34375 8.10546875 C4.96677608 10.85345876 5.12302812 13.19598416 5 16 C4.34 15.67 3.68 15.34 3 15 C2.40234375 13.1875 2.40234375 13.1875 1.9375 11 C1.48293377 8.22885123 1.48293377 8.22885123 0 6 C-0.04080783 4.00041636 -0.04254356 1.99954746 0 0 Z " fill="#6F826F" transform="translate(406,465)"/>
<path d="M0 0 C0.33 0.99 0.66 1.98 1 3 C-1.3125 6.1875 -1.3125 6.1875 -4 9 C-4.66 9 -5.32 9 -6 9 C-6.33 9.99 -6.66 10.98 -7 12 C-7.66 11.67 -8.32 11.34 -9 11 C-7.87672229 9.54033966 -6.75131706 8.08231636 -5.625 6.625 C-4.99851563 5.81289063 -4.37203125 5.00078125 -3.7265625 4.1640625 C-2 2 -2 2 0 0 Z " fill="#92A192" transform="translate(200,382)"/>
<path d="M0 0 C0.99 0.33 1.98 0.66 3 1 C2.04663979 2.31611677 1.08714226 3.62778961 0.125 4.9375 C-0.40867187 5.66839844 -0.94234375 6.39929688 -1.4921875 7.15234375 C-3 9 -3 9 -5 10 C-4.66666667 8.66666667 -4.33333333 7.33333333 -4 6 C-3.87625 5.29875 -3.7525 4.5975 -3.625 3.875 C-3 2 -3 2 0 0 Z " fill="#819183" transform="translate(269,368)"/>
<path d="M0 0 C0.33 0.66 0.66 1.32 1 2 C0.14453125 3.91015625 0.14453125 3.91015625 -1.1875 6.0625 C-1.82751953 7.13177734 -1.82751953 7.13177734 -2.48046875 8.22265625 C-4.25241746 10.29524408 -5.34385824 10.63030147 -8 11 C-7.04454634 9.53977837 -6.08553322 8.08188532 -5.125 6.625 C-4.59132812 5.81289063 -4.05765625 5.00078125 -3.5078125 4.1640625 C-2 2 -2 2 0 0 Z " fill="#899A8C" transform="translate(147,447)"/>
<path d="M0 0 C3.63 0 7.26 0 11 0 C10.01 1.485 10.01 1.485 9 3 C6.6171875 3.29296875 6.6171875 3.29296875 3.875 3.1875 C2.96492188 3.16042969 2.05484375 3.13335937 1.1171875 3.10546875 C0.41851562 3.07066406 -0.28015625 3.03585937 -1 3 C-0.67 2.01 -0.34 1.02 0 0 Z " fill="#67806D" transform="translate(426,425)"/>
<path d="M0 0 C0.33 0.99 0.66 1.98 1 3 C0.38125 3.5775 -0.2375 4.155 -0.875 4.75 C-3.06079584 6.82232439 -3.06079584 6.82232439 -4 9.1875 C-5 11 -5 11 -7.125 11.75 C-8.053125 11.87375 -8.053125 11.87375 -9 12 C-7.55575365 8.76138697 -5.74227753 6.38030837 -3.375 3.75 C-2.74335938 3.04359375 -2.11171875 2.3371875 -1.4609375 1.609375 C-0.97882813 1.07828125 -0.49671875 0.5471875 0 0 Z " fill="#94A196" transform="translate(223,354)"/>
<path d="M0 0 C5.28 0 10.56 0 16 0 C13.06552643 2.93447357 9.81740544 2.46158423 5.875 2.625 C5.12089844 2.66367187 4.36679687 2.70234375 3.58984375 2.7421875 C1.72696816 2.83651031 -0.13648255 2.91934662 -2 3 C-1.34 2.67 -0.68 2.34 0 2 C0 1.34 0 0.68 0 0 Z " fill="#99AA9E" transform="translate(537,594)"/>
<path d="M0 0 C0.5534764 2.07553648 1 3.84365964 1 6 C-3.38461538 9 -3.38461538 9 -6 9 C-4.47291037 5.56404834 -2.40072955 2.88087546 0 0 Z " fill="#90A092" transform="translate(172,416)"/>
<path d="M0 0 C1.32 1.65 2.64 3.3 4 5 C2.74458443 7.51083114 1.49936512 7.87125446 -1 9 C-1.80967438 6.08517222 -2.21845993 4.53886783 -1.0625 1.6875 C-0.711875 1.130625 -0.36125 0.57375 0 0 Z " fill="#829584" transform="translate(979,344)"/>
<path d="M0 0 C0 3.94623899 -1.488918 7.0140429 -4 10 C-6.64453125 11.21484375 -6.64453125 11.21484375 -9 12 C-8.06692579 10.55962331 -7.12834923 9.12281015 -6.1875 7.6875 C-5.66542969 6.88699219 -5.14335938 6.08648437 -4.60546875 5.26171875 C-3.19610151 3.2762598 -1.77903343 1.6508148 0 0 Z " fill="#829084" transform="translate(784,324)"/>
<path d="M0 0 C1 4 1 4 0.0625 6.25 C-0.4634375 7.11625 -0.4634375 7.11625 -1 8 C-1.66 8 -2.32 8 -3 8 C-3.33 8.66 -3.66 9.32 -4 10 C-4.66 9.34 -5.32 8.68 -6 8 C-4.02 5.36 -2.04 2.72 0 0 Z " fill="#849586" transform="translate(80,528)"/>
<path d="M0 0 C1.46300982 0.93018526 2.92025579 1.86944027 4.375 2.8125 C5.18710937 3.33457031 5.99921875 3.85664062 6.8359375 4.39453125 C9 6 9 6 11 9 C10.2265625 8.566875 10.2265625 8.566875 9.4375 8.125 C6.85786843 6.84450737 6.85786843 6.84450737 3.3125 6.0625 C2.219375 5.711875 1.12625 5.36125 0 5 C-0.33 4.01 -0.66 3.02 -1 2 C-0.67 1.34 -0.34 0.68 0 0 Z " fill="#9DAC9E" transform="translate(437,524)"/>
<path d="M0 0 C0.66 0.66 1.32 1.32 2 2 C1.01 4.31 0.02 6.62 -1 9 C-1.99 9 -2.98 9 -4 9 C-2.68 6.03 -1.36 3.06 0 0 Z " fill="#7C8D7D" transform="translate(183,471)"/>
<path d="M0 0 C0.33 0 0.66 0 1 0 C0.85851011 1.6045556 0.71164314 3.20863767 0.5625 4.8125 C0.48128906 5.70582031 0.40007812 6.59914063 0.31640625 7.51953125 C0 10 0 10 -1 13 C-1.66 13 -2.32 13 -3 13 C-2.52060632 8.28596212 -2.03165952 4.33420699 0 0 Z " fill="#D7E3D9" transform="translate(414,398)"/>
<path d="M0 0 C0.66 0.33 1.32 0.66 2 1 C0.84826645 3.46800047 -0.04783565 5.04783565 -2 7 C-3.32 7.33 -4.64 7.66 -6 8 C-4.02 5.36 -2.04 2.72 0 0 Z " fill="#8D9D8F" transform="translate(87,520)"/>
<path d="M0 0 C0 1.66666667 0 3.33333333 0 5 C0.66 4.67 1.32 4.34 2 4 C1.34 5.32 0.68 6.64 0 8 C-0.99 8 -1.98 8 -3 8 C-3.33 7.01 -3.66 6.02 -4 5 C-2.0625 2.3125 -2.0625 2.3125 0 0 Z " fill="#8FA391" transform="translate(100,504)"/>
<path d="M0 0 C0.66 0 1.32 0 2 0 C2.33 2.31 2.66 4.62 3 7 C2.34 7 1.68 7 1 7 C0.67 7.66 0.34 8.32 0 9 C-1.125 3.375 -1.125 3.375 0 0 Z " fill="#849286" transform="translate(938,377)"/>
<path d="M0 0 C-0.33 0.66 -0.66 1.32 -1 2 C-3.06640625 2.4140625 -3.06640625 2.4140625 -5.5625 2.625 C-6.38878906 2.69976563 -7.21507812 2.77453125 -8.06640625 2.8515625 C-9.02353516 2.92503906 -9.02353516 2.92503906 -10 3 C-9.67 2.34 -9.34 1.68 -9 1 C-8.34 1.33 -7.68 1.66 -7 2 C-7 1.34 -7 0.68 -7 0 C-4.3333581 -1.33332095 -2.83319697 -0.67102033 0 0 Z " fill="#96A599" transform="translate(577,587)"/>
<path d="M0 0 C1.37478516 0.01740234 1.37478516 0.01740234 2.77734375 0.03515625 C3.69644531 0.04417969 4.61554688 0.05320312 5.5625 0.0625 C6.27277344 0.07410156 6.98304688 0.08570313 7.71484375 0.09765625 C5.54303117 2.55472182 5.07596584 3.06080706 1.65234375 3.41015625 C-1.28515625 3.09765625 -1.28515625 3.09765625 -3.28515625 1.09765625 C-2.28515625 0.09765625 -2.28515625 0.09765625 0 0 Z " fill="#69846F" transform="translate(455.28515625,424.90234375)"/>
<path d="M0 0 C0 0.66 0 1.32 0 2 C-5.625 5 -5.625 5 -9 5 C-8.67 4.01 -8.34 3.02 -8 2 C-5.10441559 0.5522078 -3.25811062 0 0 0 Z " fill="#829385" transform="translate(471,338)"/>
<path d="M0 0 C0 3 0 3 -1.53125 4.82421875 C-2.1809375 5.43910156 -2.830625 6.05398438 -3.5 6.6875 C-4.1496875 7.31011719 -4.799375 7.93273437 -5.46875 8.57421875 C-5.9740625 9.04472656 -6.479375 9.51523437 -7 10 C-7.66 9.67 -8.32 9.34 -9 9 C-8.06725891 7.87105124 -7.12859878 6.74699124 -6.1875 5.625 C-5.66542969 4.99851562 -5.14335937 4.37203125 -4.60546875 3.7265625 C-3 2 -3 2 0 0 Z " fill="#8C9C8E" transform="translate(403,328)"/>
<path d="M0 0 C3.79303725 1.00193437 6.71536341 1.81024227 10 4 C10 4.66 10 5.32 10 6 C5.56909529 4.79157144 3.01887244 3.48331435 0 0 Z " fill="#C3CFC3" transform="translate(457,539)"/>
<path d="M0 0 C1.5625 1.1875 1.5625 1.1875 3 3 C2.6875 5.6875 2.6875 5.6875 2 8 C1.67 7.01 1.34 6.02 1 5 C0.01 5 -0.98 5 -2 5 C-2 4.01 -2 3.02 -2 2 C-1.34 2 -0.68 2 0 2 C0 1.34 0 0.68 0 0 Z " fill="#8C9B8A" transform="translate(420,500)"/>
<path d="M0 0 C0.33 0 0.66 0 1 0 C1.33 3.63 1.66 7.26 2 11 C1.01 11.33 0.02 11.66 -1 12 C-0.67 8.04 -0.34 4.08 0 0 Z " fill="#7C9080" transform="translate(359,406)"/>
<path d="M0 0 C0.66 0 1.32 0 2 0 C0.68775452 3.93673644 -0.91910327 6.22719294 -4 9 C-4.33 8.01 -4.66 7.02 -5 6 C-2.6875 2.8125 -2.6875 2.8125 0 0 Z " fill="#819084" transform="translate(428,368)"/>
<path d="M0 0 C-3.28491373 2.18994248 -4.83095639 2.35277339 -8.6875 2.625 C-10.17830078 2.73714844 -10.17830078 2.73714844 -11.69921875 2.8515625 C-12.83810547 2.92503906 -12.83810547 2.92503906 -14 3 C-9.7368213 0.15788087 -5.03577274 -2.0143091 0 0 Z " fill="#94A395" transform="translate(843,295)"/>
<path d="M0 0 C0.66 0.33 1.32 0.66 2 1 C2 1.66 2 2.32 2 3 C2.99 2.67 3.98 2.34 5 2 C7 4 7 4 7 6 C3.22454612 4.90931332 0.52956528 4.0916909 -2 1 C-1.34 0.67 -0.68 0.34 0 0 Z " fill="#8E9D91" transform="translate(431,576)"/>
<path d="M0 0 C1 2 1 2 0.0625 5.125 C-0.288125 6.07375 -0.63875 7.0225 -1 8 C-1.99 8 -2.98 8 -4 8 C-3.40072174 4.64404172 -2.15377564 2.62198774 0 0 Z " fill="#D6E3D5" transform="translate(129,543)"/>
<path d="M0 0 C2.97 0.33 5.94 0.66 9 1 C9 1.66 9 2.32 9 3 C9.66 3.33 10.32 3.66 11 4 C7.0507432 3.44894091 3.65079826 2.61064629 0 1 C0 0.67 0 0.34 0 0 Z " fill="#C6D2C8" transform="translate(468,545)"/>
<path d="M0 0 C0.33 0.66 0.66 1.32 1 2 C-0.2739589 4.03833424 -1.61061923 6.03852126 -3 8 C-3.66 8 -4.32 8 -5 8 C-5 8.66 -5 9.32 -5 10 C-5.66 9.67 -6.32 9.34 -7 9 C-4.69 6.03 -2.38 3.06 0 0 Z " fill="#D6E1D8" transform="translate(227,424)"/>
<path d="M0 0 C3.29907353 3.29907353 4.89128726 7.29683373 5.1875 11.9375 C5.125625 12.618125 5.06375 13.29875 5 14 C0 4.38461538 0 4.38461538 0 0 Z " fill="#DDE9E1" transform="translate(982,346)"/>
<path d="M0 0 C0.8125 1.6875 0.8125 1.6875 1 4 C-1.4375 6.75 -1.4375 6.75 -4 9 C-4 5.00095031 -2.27413033 3.19799578 0 0 Z " fill="#92A194" transform="translate(384,349)"/>
<path d="M0 0 C-1.60256108 0.50512244 -3.20711792 1.00391627 -4.8125 1.5 C-6.15248047 1.91765625 -6.15248047 1.91765625 -7.51953125 2.34375 C-10 3 -10 3 -13 3 C-12.67 2.01 -12.34 1.02 -12 0 C-10.56359829 -0.19573608 -9.12580496 -0.38127816 -7.6875 -0.5625 C-6.88699219 -0.66691406 -6.08648438 -0.77132812 -5.26171875 -0.87890625 C-3 -1 -3 -1 0 0 Z " fill="#8E9D92" transform="translate(567,591)"/>
<path d="M0 0 C0.33 0.66 0.66 1.32 1 2 C0.34 2 -0.32 2 -1 2 C-1.226875 2.639375 -1.45375 3.27875 -1.6875 3.9375 C-3 6 -3 6 -5.625 6.75 C-6.800625 6.87375 -6.800625 6.87375 -8 7 C-6.71034824 5.62437146 -5.37310707 4.29233607 -4 3 C-3.34 3 -2.68 3 -2 3 C-2 2.34 -2 1.68 -2 1 C-1.34 0.67 -0.68 0.34 0 0 Z " fill="#829482" transform="translate(593,525)"/>
<path d="M0 0 C1.04005702 3.38018531 1.08004482 6.4780279 1 10 C0.01 10.33 -0.98 10.66 -2 11 C-1.125 3.375 -1.125 3.375 0 0 Z " fill="#819186" transform="translate(362,395)"/>
<path d="M0 0 C4.455 0.99 4.455 0.99 9 2 C9.33 3.32 9.66 4.64 10 6 C5.05 4.02 5.05 4.02 0 2 C0 1.34 0 0.68 0 0 Z " fill="#99AA9C" transform="translate(551,345)"/>
<path d="M0 0 C1.32 0.33 2.64 0.66 4 1 C2.625 2.5 2.625 2.5 1 4 C0.34 4 -0.32 4 -1 4 C-1 4.66 -1 5.32 -1 6 C-1.66 5.67 -2.32 5.34 -3 5 C-2.01 3.35 -1.02 1.7 0 0 Z " fill="#D7E5D7" transform="translate(592,522)"/>
<path d="M0 0 C2.26185454 2.26185454 3.03921617 3.96983561 4 7 C3.67 7.99 3.34 8.98 3 10 C1.3372974 7.32521756 0.00016187 5.0004856 -1 2 C-0.67 1.34 -0.34 0.68 0 0 Z " fill="#808F80" transform="translate(416,492)"/>
<path d="M0 0 C0.66 0 1.32 0 2 0 C1.67 1.65 1.34 3.3 1 5 C-0.32 5.33 -1.64 5.66 -3 6 C-1.125 1.125 -1.125 1.125 0 0 Z " fill="#7B937E" transform="translate(146,452)"/>
<path d="M0 0 C0.66 1.32 1.32 2.64 2 4 C0.68 5.32 -0.64 6.64 -2 8 C-2.125 5.125 -2.125 5.125 -2 2 C-1.34 1.34 -0.68 0.68 0 0 Z " fill="#7D917F" transform="translate(210,439)"/>
<path d="M0 0 C0.66 0.99 1.32 1.98 2 3 C0.35 4.32 -1.3 5.64 -3 7 C-3.66 6.67 -4.32 6.34 -5 6 C-3.35 4.02 -1.7 2.04 0 0 Z " fill="#899B8C" transform="translate(161,430)"/>
<path d="M0 0 C0.33 1.32 0.66 2.64 1 4 C-0.65 5.32 -2.3 6.64 -4 8 C-4.66 7.67 -5.32 7.34 -6 7 C-4.02 4.69 -2.04 2.38 0 0 Z " fill="#929F93" transform="translate(213,366)"/>
<path d="M0 0 C0.33 0.66 0.66 1.32 1 2 C1.928125 2.2165625 1.928125 2.2165625 2.875 2.4375 C5.36710392 3.09717457 6.3329446 4.08288629 8 6 C4.65626525 5.44271087 1.96687001 4.64826111 -1 3 C-0.67 2.01 -0.34 1.02 0 0 Z " fill="#6F8473" transform="translate(550,341)"/>
<path d="M0 0 C2.64 0 5.28 0 8 0 C8.33 1.32 8.66 2.64 9 4 C6.03 3.01 3.06 2.02 0 1 C0 0.67 0 0.34 0 0 Z " fill="#A0B0A2" transform="translate(900,342)"/>
<path d="M0 0 C0 3 0 3 -2 6 C-1.34 6 -0.68 6 0 6 C-0.33 6.66 -0.66 7.32 -1 8 C-2.32 7.34 -3.64 6.68 -5 6 C-3.35 4.02 -1.7 2.04 0 0 Z " fill="#97A799" transform="translate(73,537)"/>
<path d="M0 0 C0.99 0.66 1.98 1.32 3 2 C0.1875 3.5625 0.1875 3.5625 -3 5 C-3.99 4.67 -4.98 4.34 -6 4 C-4.02 2.68 -2.04 1.36 0 0 Z " fill="#7E9380" transform="translate(447,533)"/>
<path d="M0 0 C2.31 0.33 4.62 0.66 7 1 C7 1.66 7 2.32 7 3 C3.94736336 3.98120464 2.05263664 3.98120464 -1 3 C-0.67 2.01 -0.34 1.02 0 0 Z " fill="#7D927F" transform="translate(430,523)"/>
<path d="M0 0 C0.99 0.33 1.98 0.66 3 1 C3.6875 3.0625 3.6875 3.0625 4 5 C3.01 5.495 3.01 5.495 2 6 C1.67 5.34 1.34 4.68 1 4 C0.01 4.495 0.01 4.495 -1 5 C-0.67 3.35 -0.34 1.7 0 0 Z " fill="#849585" transform="translate(940,385)"/>
<path d="M0 0 C0.99 0.33 1.98 0.66 3 1 C4.1875 3.5625 4.1875 3.5625 5 6 C3.35 5.67 1.7 5.34 0 5 C0 3.35 0 1.7 0 0 Z " fill="#829184" transform="translate(627,357)"/>
<path d="M0 0 C0 0.99 0 1.98 0 3 C-0.99 3.495 -0.99 3.495 -2 4 C-1.34 2.68 -0.68 1.36 0 0 Z M-4 1 C-3.34 2.32 -2.68 3.64 -2 5 C-3.32 5.33 -4.64 5.66 -6 6 C-5.34 4.35 -4.68 2.7 -4 1 Z " fill="#8E9E91" transform="translate(382,357)"/>
<path d="M0 0 C0.99 0.33 1.98 0.66 3 1 C0.36 2.98 -2.28 4.96 -5 7 C-4.67 5.68 -4.34 4.36 -4 3 C-2.68 2.67 -1.36 2.34 0 2 C0 1.34 0 0.68 0 0 Z " fill="#D1DFD1" transform="translate(412,318)"/>
<path d="M0 0 C2.475 0.495 2.475 0.495 5 1 C5 1.66 5 2.32 5 3 C5.66 3.33 6.32 3.66 7 4 C6.01 4.33 5.02 4.66 4 5 C1 3 1 3 0 0 Z " fill="#93A394" transform="translate(557,298)"/>
</svg>
